{"asset":{"generator":"3D Builder","version":"2.0"},"scene":0,"scenes":[{"nodes":[0]}],"nodes":[{"children":[1,2,3,4,5,6,7,8,9,10,11,12,13,14,15,16]},{"mesh":0,"matrix":[1,0,0,0,0,-1.1920928955078125E-7,-0.99999988079071045,0,0,0.99999988079071045,-1.1920928955078125E-7,0,-0.033578608185052872,0.00020266931096557528,0.00027898832922801375,1]},{"mesh":1,"matrix":[1,0,0,0,0,-1.1920928955078125E-7,-0.99999988079071045,0,0,0.99999988079071045,-1.1920928955078125E-7,0,-0.033578608185052872,0.00020266925275791436,-0.00019063607032876462,1]},{"mesh":2,"matrix":[1,0,0,0,0,-1.1920928955078125E-7,-0.99999988079071045,0,0,0.99999988079071045,-1.1920928955078125E-7,0,-0.033578608185052872,0.00020266925275791436,-0.00019063607032876462,1]},{"mesh":3,"matrix":[-0.99999380111694336,3.7960069221298909E-7,-1.0430815677864302E-7,0,-5.4389238357543945E-7,4.8843003241927363E-7,0.99999338388442993,0,3.7960353438393213E-7,0.99999988079071045,-4.8843310196389211E-7,0,0.033578462898731232,0.00020267083891667426,0.00090486567933112383,1]},{"mesh":4,"matrix":[-0.99999380111694336,3.7960069221298909E-7,-1.0430815677864302E-7,0,-5.4389238357543945E-7,4.8843003241927363E-7,0.99999338388442993,0,3.7960353438393213E-7,0.99999988079071045,-4.8843310196389211E-7,0,0.033578462898731232,0.00020267083891667426,0.00090486567933112383,1]},{"mesh":5,"matrix":[-0.99999380111694336,3.7960069221298909E-7,-1.0430815677864302E-7,0,-5.4389238357543945E-7,4.8843003241927363E-7,0.99999338388442993,0,3.7960353438393213E-7,0.99999988079071045,-4.8843310196389211E-7,0,0.033578462898731232,0.00020267083891667426,0.00090486567933112383,1]},{"mesh":6,"matrix":[-0.99999380111694336,3.7960069221298909E-7,-1.0430815677864302E-7,0,-5.4389238357543945E-7,4.8843003241927363E-7,0.99999338388442993,0,3.7960353438393213E-7,0.99999988079071045,-4.8843310196389211E-7,0,0.033578462898731232,0.00020267083891667426,0.00090486567933112383,1]},{"mesh":7,"matrix":[-0.99999380111694336,3.7960069221298909E-7,-1.0430815677864302E-7,0,-5.4389238357543945E-7,4.8843003241927363E-7,0.99999338388442993,0,3.7960353438393213E-7,0.99999988079071045,-4.8843310196389211E-7,0,0.033578462898731232,0.00020267083891667426,0.00090486567933112383,1]},{"mesh":8,"matrix":[-0.99999380111694336,3.7960069221298909E-7,-1.0430815677864302E-7,0,-5.4389238357543945E-7,4.8843003241927363E-7,0.99999338388442993,0,3.7960353438393213E-7,0.99999988079071045,-4.8843310196389211E-7,0,0.033578462898731232,0.00020267083891667426,0.00090486567933112383,1]},{"mesh":9,"matrix":[0.99999380111694336,6.1801773654224235E-7,-1.3410912913514039E-7,0,3.0547531082447676E-7,1.1596064553032193E-8,-0.99999338388442993,0,-6.1802205664207577E-7,0.99999988079071045,1.1595957971621829E-8,0,-0.033577959984540939,0.00020265327475499362,0.004483208991587162,1]},{"mesh":10,"matrix":[0.99999380111694336,6.1801773654224235E-7,-1.3410912913514039E-7,0,3.0547531082447676E-7,1.1596064553032193E-8,-0.99999338388442993,0,-6.1802205664207577E-7,0.99999988079071045,1.1595957971621829E-8,0,-0.033577959984540939,0.00020265327475499362,0.004483208991587162,1]},{"mesh":11,"matrix":[0.99999380111694336,6.1801773654224235E-7,-1.3410912913514039E-7,0,3.0547531082447676E-7,1.1596064553032193E-8,-0.99999338388442993,0,-6.1802205664207577E-7,0.99999988079071045,1.1595957971621829E-8,0,-0.033577959984540939,0.00020265327475499362,0.004483208991587162,1]},{"mesh":12,"matrix":[0.99999380111694336,6.1801773654224235E-7,-1.3410912913514039E-7,0,3.0547531082447676E-7,1.1596064553032193E-8,-0.99999338388442993,0,-6.1802205664207577E-7,0.99999988079071045,1.1595957971621829E-8,0,-0.033577959984540939,0.00020265327475499362,0.004483208991587162,1]},{"mesh":13,"matrix":[0.99999380111694336,6.1801773654224235E-7,-1.3410912913514039E-7,0,3.0547531082447676E-7,1.1596064553032193E-8,-0.99999338388442993,0,-6.1802205664207577E-7,0.99999988079071045,1.1595957971621829E-8,0,-0.033577959984540939,0.00020265327475499362,0.004483208991587162,1]},{"mesh":14,"matrix":[0.99999380111694336,6.1801773654224235E-7,-1.3410912913514039E-7,0,3.0547531082447676E-7,1.1596064553032193E-8,-0.99999338388442993,0,-6.1802205664207577E-7,0.99999988079071045,1.1595957971621829E-8,0,-0.033577959984540939,0.00020265327475499362,0.004483208991587162,1]},{"mesh":15,"matrix":[0.75,0,0,0,0,-8.9406967163085938E-8,-0.74999988079071045,0,0,0.74999988079071045,-8.9406967163085938E-8,0,-0.024996982887387276,0.24999986588954926,0.00032663007732480764,1]}],"meshes":[{"primitives":[{"attributes":{"POSITION":0,"COLOR_0":1},"mode":4,"indices":2}]},{"primitives":[{"attributes":{"POSITION":3},"mode":4,"indices":6,"material":0},{"attributes":{"POSITION":4,"COLOR_0":5},"mode":4,"indices":7}]},{"primitives":[{"attributes":{"POSITION":8,"COLOR_0":9},"mode":4,"indices":10}]},{"primitives":[{"attributes":{"POSITION":11,"COLOR_0":12},"mode":4,"indices":13}]},{"primitives":[{"attributes":{"POSITION":14,"COLOR_0":15},"mode":4,"indices":16}]},{"primitives":[{"attributes":{"POSITION":17,"COLOR_0":18},"mode":4,"indices":19}]},{"primitives":[{"attributes":{"POSITION":20,"COLOR_0":21},"mode":4,"indices":22}]},{"primitives":[{"attributes":{"POSITION":23},"mode":4,"indices":26,"material":0},{"attributes":{"POSITION":24,"COLOR_0":25},"mode":4,"indices":27}]},{"primitives":[{"attributes":{"POSITION":28,"COLOR_0":29},"mode":4,"indices":30}]},{"primitives":[{"attributes":{"POSITION":31,"COLOR_0":32},"mode":4,"indices":33}]},{"primitives":[{"attributes":{"POSITION":34,"COLOR_0":35},"mode":4,"indices":36}]},{"primitives":[{"attributes":{"POSITION":37,"COLOR_0":38},"mode":4,"indices":39}]},{"primitives":[{"attributes":{"POSITION":40,"COLOR_0":41},"mode":4,"indices":42}]},{"primitives":[{"attributes":{"POSITION":43},"mode":4,"indices":46,"material":0},{"attributes":{"POSITION":44,"COLOR_0":45},"mode":4,"indices":47}]},{"primitives":[{"attributes":{"POSITION":48,"COLOR_0":49},"mode":4,"indices":50}]},{"primitives":[{"attributes":{"POSITION":51,"COLOR_0":52},"mode":4,"indices":53}]}],"accessors":[{"bufferView":0,"byteOffset":0,"count":8,"componentType":5126,"type":"VEC3","min":[0.019326521083712578,-0.015190623700618744,-0.00020266931096557528],"max":[0.049326524138450623,0.014809373766183853,0.24979722499847412]},{"bufferView":1,"byteOffset":0,"count":8,"componentType":5121,"type":"VEC4","normalized":true},{"bufferView":2,"byteOffset":0,"count":36,"componentType":5125,"type":"SCALAR"},{"bufferView":3,"byteOffset":0,"count":4,"componentType":5126,"type":"VEC3","min":[0.014326520264148712,-0.020190630108118057,3.0551919895113017E-16],"max":[0.054326519370079041,0.019809357821941376,5.8973631337220275E-16]},{"bufferView":3,"byteOffset":48,"count":5,"componentType":5126,"type":"VEC3","min":[0.014326520264148712,-0.020190630108118057,3.0551919895113017E-16],"max":[0.054326519370079041,0.019809357821941376,0.039997987449169159]},{"bufferView":4,"byteOffset":0,"count":5,"componentType":5121,"type":"VEC4","normalized":true},{"bufferView":5,"byteOffset":0,"count":6,"componentType":5125,"type":"SCALAR"},{"bufferView":5,"byteOffset":24,"count":12,"componentType":5125,"type":"SCALAR"},{"bufferView":6,"byteOffset":0,"count":8,"componentType":5126,"type":"VEC3","min":[-0.092448607087135315,-0.010986501350998878,0.24979723989963531],"max":[0.15960581600666046,0.0053606424480676651,0.33895343542099]},{"bufferView":7,"byteOffset":0,"count":8,"componentType":5121,"type":"VEC4","normalized":true},{"bufferView":8,"byteOffset":0,"count":36,"componentType":5125,"type":"SCALAR"},{"bufferView":9,"byteOffset":0,"count":972,"componentType":5126,"type":"VEC3","min":[0.11116878688335419,-0.01548352837562561,0.27024435997009277],"max":[0.15317389369010925,-0.0064571313560009,0.31291106343269348]},{"bufferView":10,"byteOffset":0,"count":972,"componentType":5121,"type":"VEC4","normalized":true},{"bufferView":11,"byteOffset":0,"count":5832,"componentType":5125,"type":"SCALAR"},{"bufferView":12,"byteOffset":0,"count":406,"componentType":5126,"type":"VEC3","min":[0.035156458616256714,-0.015482495538890362,0.27079179883003235],"max":[0.074541978538036346,-0.0064560766331851482,0.31235915422439575]},{"bufferView":13,"byteOffset":0,"count":406,"componentType":5121,"type":"VEC4","normalized":true},{"bufferView":14,"byteOffset":0,"count":2436,"componentType":5125,"type":"SCALAR"},{"bufferView":15,"byteOffset":0,"count":1214,"componentType":5126,"type":"VEC3","min":[0.074541985988616943,-0.015516852959990501,0.27202367782592773],"max":[0.11116879433393478,-0.0064565185457468033,0.31477862596511841]},{"bufferView":16,"byteOffset":0,"count":1214,"componentType":5121,"type":"VEC4","normalized":true},{"bufferView":17,"byteOffset":0,"count":7278,"componentType":5125,"type":"SCALAR"},{"bufferView":18,"byteOffset":0,"count":512,"componentType":5126,"type":"VEC3","min":[-0.0076019912958145142,-0.015479934401810169,0.27079197764396667],"max":[0.035156451165676117,-0.0064568584784865379,0.31236276030540466]},{"bufferView":19,"byteOffset":0,"count":512,"componentType":5121,"type":"VEC4","normalized":true},{"bufferView":20,"byteOffset":0,"count":3060,"componentType":5125,"type":"SCALAR"},{"bufferView":21,"byteOffset":0,"count":3,"componentType":5126,"type":"VEC3","min":[-0.081266187131404877,-0.015483373776078224,0.27554619312286377],"max":[-0.081259414553642273,-0.015483083203434944,0.3076191842556]},{"bufferView":21,"byteOffset":36,"count":406,"componentType":5126,"type":"VEC3","min":[-0.086016759276390076,-0.01548344362527132,0.2707955539226532],"max":[-0.049607090651988983,-0.0064569893293082714,0.312362939119339]},{"bufferView":22,"byteOffset":0,"count":406,"componentType":5121,"type":"VEC4","normalized":true},{"bufferView":23,"byteOffset":0,"count":3,"componentType":5125,"type":"SCALAR"},{"bufferView":23,"byteOffset":12,"count":2421,"componentType":5125,"type":"SCALAR"},{"bufferView":24,"byteOffset":0,"count":972,"componentType":5126,"type":"VEC3","min":[-0.04960709810256958,-0.01548352837562561,0.27024435997009277],"max":[-0.0076019857078790665,-0.0064571313560009,0.31291106343269348]},{"bufferView":25,"byteOffset":0,"count":972,"componentType":5121,"type":"VEC4","normalized":true},{"bufferView":26,"byteOffset":0,"count":5832,"componentType":5125,"type":"SCALAR"},{"bufferView":27,"byteOffset":0,"count":972,"componentType":5126,"type":"VEC3","min":[0.11116878688335419,-0.01548352837562561,0.27024435997009277],"max":[0.15317389369010925,-0.0064571313560009,0.31291106343269348]},{"bufferView":28,"byteOffset":0,"count":972,"componentType":5121,"type":"VEC4","normalized":true},{"bufferView":29,"byteOffset":0,"count":5832,"componentType":5125,"type":"SCALAR"},{"bufferView":30,"byteOffset":0,"count":406,"componentType":5126,"type":"VEC3","min":[0.035156458616256714,-0.015482495538890362,0.27079179883003235],"max":[0.074541978538036346,-0.0064560766331851482,0.31235915422439575]},{"bufferView":31,"byteOffset":0,"count":406,"componentType":5121,"type":"VEC4","normalized":true},{"bufferView":32,"byteOffset":0,"count":2436,"componentType":5125,"type":"SCALAR"},{"bufferView":33,"byteOffset":0,"count":1214,"componentType":5126,"type":"VEC3","min":[0.074541985988616943,-0.015516852959990501,0.27202367782592773],"max":[0.11116879433393478,-0.0064565185457468033,0.31477862596511841]},{"bufferView":34,"byteOffset":0,"count":1214,"componentType":5121,"type":"VEC4","normalized":true},{"bufferView":35,"byteOffset":0,"count":7278,"componentType":5125,"type":"SCALAR"},{"bufferView":36,"byteOffset":0,"count":512,"componentType":5126,"type":"VEC3","min":[-0.0076019912958145142,-0.015479934401810169,0.27079197764396667],"max":[0.035156451165676117,-0.0064568584784865379,0.31236276030540466]},{"bufferView":37,"byteOffset":0,"count":512,"componentType":5121,"type":"VEC4","normalized":true},{"bufferView":38,"byteOffset":0,"count":3060,"componentType":5125,"type":"SCALAR"},{"bufferView":39,"byteOffset":0,"count":3,"componentType":5126,"type":"VEC3","min":[-0.081266187131404877,-0.015483373776078224,0.27554619312286377],"max":[-0.081259414553642273,-0.015483083203434944,0.3076191842556]},{"bufferView":39,"byteOffset":36,"count":406,"componentType":5126,"type":"VEC3","min":[-0.086016759276390076,-0.01548344362527132,0.2707955539226532],"max":[-0.049607090651988983,-0.0064569893293082714,0.312362939119339]},{"bufferView":40,"byteOffset":0,"count":406,"componentType":5121,"type":"VEC4","normalized":true},{"bufferView":41,"byteOffset":0,"count":3,"componentType":5125,"type":"SCALAR"},{"bufferView":41,"byteOffset":12,"count":2421,"componentType":5125,"type":"SCALAR"},{"bufferView":42,"byteOffset":0,"count":972,"componentType":5126,"type":"VEC3","min":[-0.04960709810256958,-0.01548352837562561,0.27024435997009277],"max":[-0.0076019857078790665,-0.0064571313560009,0.31291106343269348]},{"bufferView":43,"byteOffset":0,"count":972,"componentType":5121,"type":"VEC4","normalized":true},{"bufferView":44,"byteOffset":0,"count":5832,"componentType":5125,"type":"SCALAR"},{"bufferView":45,"byteOffset":0,"count":5,"componentType":5126,"type":"VEC3","min":[0.014326520264148712,-0.020190630108118057,3.0551919895113017E-16],"max":[0.054326519370079041,0.019809357821941376,0.039997987449169159]},{"bufferView":46,"byteOffset":0,"count":5,"componentType":5121,"type":"VEC4","normalized":true},{"bufferView":47,"byteOffset":0,"count":18,"componentType":5125,"type":"SCALAR"}],"materials":[{"name":"Regular","pbrMetallicRoughness":{"baseColorFactor":[0,0.3515326976776123,0.80695235729217529,1],"metallicFactor":0,"roughnessFactor":1},"alphaMode":"OPAQUE"}],"bufferViews":[{"buffer":0,"byteOffset":0,"byteLength":96,"byteStride":12,"target":34962},{"buffer":0,"byteOffset":96,"byteLength":32,"byteStride":4,"target":34962},{"buffer":0,"byteOffset":128,"byteLength":144,"target":34963},{"buffer":0,"byteOffset":272,"byteLength":108,"byteStride":12,"target":34962},{"buffer":0,"byteOffset":380,"byteLength":20,"byteStride":4,"target":34962},{"buffer":0,"byteOffset":400,"byteLength":72,"target":34963},{"buffer":0,"byteOffset":472,"byteLength":96,"byteStride":12,"target":34962},{"buffer":0,"byteOffset":568,"byteLength":32,"byteStride":4,"target":34962},{"buffer":0,"byteOffset":600,"byteLength":144,"target":34963},{"buffer":0,"byteOffset":744,"byteLength":11664,"byteStride":12,"target":34962},{"buffer":0,"byteOffset":12408,"byteLength":3888,"byteStride":4,"target":34962},{"buffer":0,"byteOffset":16296,"byteLength":23328,"target":34963},{"buffer":0,"byteOffset":39624,"byteLength":4872,"byteStride":12,"target":34962},{"buffer":0,"byteOffset":44496,"byteLength":1624,"byteStride":4,"target":34962},{"buffer":0,"byteOffset":46120,"byteLength":9744,"target":34963},{"buffer":0,"byteOffset":55864,"byteLength":14568,"byteStride":12,"target":34962},{"buffer":0,"byteOffset":70432,"byteLength":4856,"byteStride":4,"target":34962},{"buffer":0,"byteOffset":75288,"byteLength":29112,"target":34963},{"buffer":0,"byteOffset":104400,"byteLength":6144,"byteStride":12,"target":34962},{"buffer":0,"byteOffset":110544,"byteLength":2048,"byteStride":4,"target":34962},{"buffer":0,"byteOffset":112592,"byteLength":12240,"target":34963},{"buffer":0,"byteOffset":124832,"byteLength":4908,"byteStride":12,"target":34962},{"buffer":0,"byteOffset":129740,"byteLength":1624,"byteStride":4,"target":34962},{"buffer":0,"byteOffset":131364,"byteLength":9696,"target":34963},{"buffer":0,"byteOffset":141060,"byteLength":11664,"byteStride":12,"target":34962},{"buffer":0,"byteOffset":152724,"byteLength":3888,"byteStride":4,"target":34962},{"buffer":0,"byteOffset":156612,"byteLength":23328,"target":34963},{"buffer":0,"byteOffset":179940,"byteLength":11664,"byteStride":12,"target":34962},{"buffer":0,"byteOffset":191604,"byteLength":3888,"byteStride":4,"target":34962},{"buffer":0,"byteOffset":195492,"byteLength":23328,"target":34963},{"buffer":0,"byteOffset":218820,"byteLength":4872,"byteStride":12,"target":34962},{"buffer":0,"byteOffset":223692,"byteLength":1624,"byteStride":4,"target":34962},{"buffer":0,"byteOffset":225316,"byteLength":9744,"target":34963},{"buffer":0,"byteOffset":235060,"byteLength":14568,"byteStride":12,"target":34962},{"buffer":0,"byteOffset":249628,"byteLength":4856,"byteStride":4,"target":34962},{"buffer":0,"byteOffset":254484,"byteLength":29112,"target":34963},{"buffer":0,"byteOffset":283596,"byteLength":6144,"byteStride":12,"target":34962},{"buffer":0,"byteOffset":289740,"byteLength":2048,"byteStride":4,"target":34962},{"buffer":0,"byteOffset":291788,"byteLength":12240,"target":34963},{"buffer":0,"byteOffset":304028,"byteLength":4908,"byteStride":12,"target":34962},{"buffer":0,"byteOffset":308936,"byteLength":1624,"byteStride":4,"target":34962},{"buffer":0,"byteOffset":310560,"byteLength":9696,"target":34963},{"buffer":0,"byteOffset":320256,"byteLength":11664,"byteStride":12,"target":34962},{"buffer":0,"byteOffset":331920,"byteLength":3888,"byteStride":4,"target":34962},{"buffer":0,"byteOffset":335808,"byteLength":23328,"target":34963},{"buffer":0,"byteOffset":359136,"byteLength":60,"byteStride":12,"target":34962},{"buffer":0,"byteOffset":359196,"byteLength":20,"byteStride":4,"target":34962},{"buffer":0,"byteOffset":359216,"byteLength":72,"target":34963}],"buffers":[{"byteLength":359288,"uri":"station.bin"}]}