{"asset":{"generator":"3D Builder","version":"2.0"},"scene":0,"scenes":[{"nodes":[0]}],"nodes":[{"children":[1,2,3,4,5,6,7,8,9]},{"mesh":0,"matrix":[0.7500375509262085,0,0,0,0,-8.9406981373940653E-8,-0.75,0,0,6.2503108978271484,-7.4509523528831778E-7,0,-0.035121425986289978,-0.00020266413048375398,0.043678294867277145,1]},{"mesh":1,"matrix":[0.99999994039535522,0,0,0,0,-1.1920928244535389E-7,-0.99999982118606567,0,0,0.99999982118606567,-1.1920928244535389E-7,0,-0.083119429647922516,7.08434466645258E-9,0.059427782893180847,1]},{"mesh":2,"matrix":[6.3016753196716309,0,0,0,0,-4.8718298728545051E-8,-0.40867865085601807,0,0,2.2290163040161133,-2.6571947842057853E-7,0,-0.14689655601978302,0.2497972697019577,0.024797998368740082,1]},{"mesh":3,"matrix":[2.1358203887939453,0,0,0,0,2.1358175277709961,-1.0184371603827458E-6,0,0,2.1566440864262404E-6,2.1358180046081543,0,0.10283894836902618,0.1964385062456131,0.0026948577724397182,1]},{"mesh":4,"matrix":[2.1358203887939453,0,0,0,0,2.1358175277709961,-1.0184371603827458E-6,0,0,2.1566440864262404E-6,2.1358180046081543,0,0.14218489825725555,0.24656254053115845,0.0026948519516736269,1]},{"mesh":5,"matrix":[2.1358203887939453,0,0,0,0,2.1358175277709961,-1.0184371603827458E-6,0,0,2.1566440864262404E-6,2.1358180046081543,0,0.06396406888961792,0.28791794180870056,0.00269484706223011,1]},{"mesh":6,"matrix":[2.1358203887939453,0,0,0,0,2.1358175277709961,-1.0184371603827458E-6,0,0,2.1566440864262404E-6,2.1358180046081543,0,-0.065125823020935059,0.28791794180870056,0.00269484706223011,1]},{"mesh":7,"matrix":[2.1358203887939453,0,0,0,0,2.1358175277709961,-1.0184371603827458E-6,0,0,2.1566440864262404E-6,2.1358180046081543,0,-0.06879088282585144,0.28791794180870056,0.00269484706223011,1]},{"mesh":8,"matrix":[2.1358203887939453,0,0,0,0,2.1358175277709961,-1.0184371603827458E-6,0,0,2.1566440864262404E-6,2.1358180046081543,0,0.091985009610652924,0.28791794180870056,0.00269484706223011,1]}],"meshes":[{"primitives":[{"attributes":{"POSITION":0},"mode":4,"indices":1,"material":0}]},{"primitives":[{"attributes":{"POSITION":2},"mode":4,"indices":3,"material":1}]},{"primitives":[{"attributes":{"POSITION":4},"mode":4,"indices":5,"material":0}]},{"primitives":[{"attributes":{"POSITION":6},"mode":4,"indices":7,"material":2}]},{"primitives":[{"attributes":{"POSITION":8},"mode":4,"indices":9,"material":3}]},{"primitives":[{"attributes":{"POSITION":10},"mode":4,"indices":11,"material":4}]},{"primitives":[{"attributes":{"POSITION":12},"mode":4,"indices":13,"material":4}]},{"primitives":[{"attributes":{"POSITION":14},"mode":4,"indices":15,"material":4}]},{"primitives":[{"attributes":{"POSITION":16},"mode":4,"indices":17,"material":4}]}],"materials":[{"name":"Green","pbrMetallicRoughness":{"baseColorFactor":[0.015208514407277107,0.49693304300308228,0.072271861135959625,1],"metallicFactor":0,"roughnessFactor":1},"alphaMode":"OPAQUE"},{"name":"Yellow","pbrMetallicRoughness":{"baseColorFactor":[0.99110221862792969,0.87962257862091064,0,1],"metallicFactor":0,"roughnessFactor":1},"alphaMode":"OPAQUE"},{"name":"Dark red_1_0","pbrMetallicRoughness":{"baseColorFactor":[0.24620139598846436,0,0.0074990317225456238,1],"metallicFactor":0,"roughnessFactor":0.498039186000824},"alphaMode":"OPAQUE"},{"name":"Turquoise_1_1","pbrMetallicRoughness":{"baseColorFactor":[0,0.3515326976776123,0.80695235729217529,1],"metallicFactor":0,"roughnessFactor":0.498039186000824},"alphaMode":"OPAQUE"},{"name":"Green_1_2","pbrMetallicRoughness":{"baseColorFactor":[0.015208514407277107,0.49693304300308228,0.072271861135959625,1],"metallicFactor":0,"roughnessFactor":0.498039186000824},"alphaMode":"OPAQUE"}],"accessors":[{"bufferView":0,"byteOffset":0,"count":8,"componentType":5126,"type":"VEC3","min":[0,0.042998004704713821,0],"max":[0.039998002350330353,0.082998007535934448,0.039998002350330353]},{"bufferView":1,"byteOffset":0,"count":36,"componentType":5125,"type":"SCALAR"},{"bufferView":2,"byteOffset":0,"count":5,"componentType":5126,"type":"VEC3","min":[0.042998004704713821,0.042998004704713821,0],"max":[0.082998007535934448,0.082998007535934448,0.039998002350330353]},{"bufferView":3,"byteOffset":0,"count":18,"componentType":5125,"type":"SCALAR"},{"bufferView":4,"byteOffset":0,"count":8,"componentType":5126,"type":"VEC3","min":[0,0.042998004704713821,0],"max":[0.039998002350330353,0.082998007535934448,0.039998002350330353]},{"bufferView":5,"byteOffset":0,"count":36,"componentType":5125,"type":"SCALAR"},{"bufferView":6,"byteOffset":0,"count":406,"componentType":5126,"type":"VEC3","min":[-0.057181980460882187,0.03481258824467659,2.0186416804790497E-7],"max":[-0.038741514086723328,0.054274622350931168,0.0042264033108949661]},{"bufferView":7,"byteOffset":0,"count":2436,"componentType":5125,"type":"SCALAR"},{"bufferView":8,"byteOffset":0,"count":1214,"componentType":5126,"type":"VEC3","min":[-0.057163450866937637,0.01192103698849678,3.9453152567148209E-7],"max":[-0.04001462459564209,0.031939122825860977,0.0042424756102263927]},{"bufferView":9,"byteOffset":0,"count":7278,"componentType":5125,"type":"SCALAR"},{"bufferView":10,"byteOffset":0,"count":512,"componentType":5126,"type":"VEC3","min":[-0.059000290930271149,-0.0080184489488601685,5.4115662351250648E-7],"max":[-0.038980603218078613,0.011445198208093643,0.0042251776903867722]},{"bufferView":11,"byteOffset":0,"count":3060,"componentType":5125,"type":"SCALAR"},{"bufferView":12,"byteOffset":0,"count":406,"componentType":5126,"type":"VEC3","min":[-0.035273980349302292,-0.0080167651176452637,6.023910827934742E-7],"max":[-0.018226820975542068,0.011445280164480209,0.0042268205434083939]},{"bufferView":13,"byteOffset":0,"count":2424,"componentType":5125,"type":"SCALAR"},{"bufferView":14,"byteOffset":0,"count":972,"componentType":5126,"type":"VEC3","min":[-0.016510829329490662,-0.0082748495042324066,6.6868960857391357E-7],"max":[0.0031561404466629028,0.011701911687850952,0.004226860124617815]},{"bufferView":15,"byteOffset":0,"count":5832,"componentType":5125,"type":"SCALAR"},{"bufferView":16,"byteOffset":0,"count":972,"componentType":5126,"type":"VEC3","min":[-0.016510829329490662,-0.0082748495042324066,6.6868960857391357E-7],"max":[0.0031561404466629028,0.011701911687850952,0.004226860124617815]},{"bufferView":17,"byteOffset":0,"count":5832,"componentType":5125,"type":"SCALAR"}],"bufferViews":[{"buffer":0,"byteOffset":0,"byteLength":96,"byteStride":12,"target":34962},{"buffer":0,"byteOffset":96,"byteLength":144,"target":34963},{"buffer":0,"byteOffset":240,"byteLength":60,"byteStride":12,"target":34962},{"buffer":0,"byteOffset":300,"byteLength":72,"target":34963},{"buffer":0,"byteOffset":372,"byteLength":96,"byteStride":12,"target":34962},{"buffer":0,"byteOffset":468,"byteLength":144,"target":34963},{"buffer":0,"byteOffset":612,"byteLength":4872,"byteStride":12,"target":34962},{"buffer":0,"byteOffset":5484,"byteLength":9744,"target":34963},{"buffer":0,"byteOffset":15228,"byteLength":14568,"byteStride":12,"target":34962},{"buffer":0,"byteOffset":29796,"byteLength":29112,"target":34963},{"buffer":0,"byteOffset":58908,"byteLength":6144,"byteStride":12,"target":34962},{"buffer":0,"byteOffset":65052,"byteLength":12240,"target":34963},{"buffer":0,"byteOffset":77292,"byteLength":4872,"byteStride":12,"target":34962},{"buffer":0,"byteOffset":82164,"byteLength":9696,"target":34963},{"buffer":0,"byteOffset":91860,"byteLength":11664,"byteStride":12,"target":34962},{"buffer":0,"byteOffset":103524,"byteLength":23328,"target":34963},{"buffer":0,"byteOffset":126852,"byteLength":11664,"byteStride":12,"target":34962},{"buffer":0,"byteOffset":138516,"byteLength":23328,"target":34963}],"buffers":[{"byteLength":161844,"uri":"station.bin"}]}