{"asset":{"generator":"3D Builder","version":"2.0"},"scene":0,"scenes":[{"nodes":[0]}],"nodes":[{"children":[1,2,3,4,5,6,7,8,9]},{"mesh":0,"matrix":[0.7500375509262085,0,0,0,0,-8.9406981373940653E-8,-0.75,0,0,6.2503108978271484,-7.4509523528831778E-7,0,0.0075182910077273846,-0.0002026613219641149,0.067248493432998657,1]},{"mesh":1,"matrix":[0.99999994039535522,0,0,0,0,-1.1920928244535389E-7,-0.99999982118606567,0,0,0.99999982118606567,-1.1920928244535389E-7,0,-0.040479712188243866,9.8941326243107142E-9,0.082997992634773254,1]},{"mesh":2,"matrix":[6.3016753196716309,0,0,0,0,-4.8718298728545051E-8,-0.40867865085601807,0,0,2.2290163040161133,-2.6571947842057853E-7,0,-0.10425683856010437,0.2497972697019577,0.048368196934461594,1]},{"mesh":3,"matrix":[2.1358203887939453,0,0,0,0,2.1358175277709961,-1.0184371603827458E-6,0,0,2.1566440864262404E-6,2.1358180046081543,0,0.14547866582870483,0.1964385062456131,0.026265056803822517,1]},{"mesh":4,"matrix":[2.1358203887939453,0,0,0,0,2.1358175277709961,-1.0184371603827458E-6,0,0,2.1566440864262404E-6,2.1358180046081543,0,0.1848246157169342,0.24656254053115845,0.02626505121588707,1]},{"mesh":5,"matrix":[2.1358203887939453,0,0,0,0,2.1358175277709961,-1.0184371603827458E-6,0,0,2.1566440864262404E-6,2.1358180046081543,0,0.10660378634929657,0.28791794180870056,0.026265047490596771,1]},{"mesh":6,"matrix":[2.1358203887939453,0,0,0,0,2.1358175277709961,-1.0184371603827458E-6,0,0,2.1566440864262404E-6,2.1358180046081543,0,-0.022486103698611259,0.28791794180870056,0.026265047490596771,1]},{"mesh":7,"matrix":[2.1358203887939453,0,0,0,0,2.1358175277709961,-1.0184371603827458E-6,0,0,2.1566440864262404E-6,2.1358180046081543,0,-0.026151165366172791,0.28791794180870056,0.026265047490596771,1]},{"mesh":8,"matrix":[2.1358203887939453,0,0,0,0,2.1358175277709961,-1.0184371603827458E-6,0,0,2.1566440864262404E-6,2.1358180046081543,0,0.13462471961975098,0.28791794180870056,0.026265047490596771,1]}],"meshes":[{"primitives":[{"attributes":{"POSITION":0,"COLOR_0":1},"mode":4,"indices":2}]},{"primitives":[{"attributes":{"POSITION":3},"mode":4,"indices":6,"material":0},{"attributes":{"POSITION":4,"COLOR_0":5},"mode":4,"indices":7}]},{"primitives":[{"attributes":{"POSITION":8,"COLOR_0":9},"mode":4,"indices":10}]},{"primitives":[{"attributes":{"POSITION":11,"COLOR_0":12},"mode":4,"indices":13}]},{"primitives":[{"attributes":{"POSITION":14,"COLOR_0":15},"mode":4,"indices":16}]},{"primitives":[{"attributes":{"POSITION":17,"COLOR_0":18},"mode":4,"indices":19}]},{"primitives":[{"attributes":{"POSITION":20},"mode":4,"indices":23,"material":1},{"attributes":{"POSITION":21,"COLOR_0":22},"mode":4,"indices":24}]},{"primitives":[{"attributes":{"POSITION":25,"COLOR_0":26},"mode":4,"indices":27}]},{"primitives":[{"attributes":{"POSITION":28,"COLOR_0":29},"mode":4,"indices":30}]}],"accessors":[{"bufferView":0,"byteOffset":0,"count":8,"componentType":5126,"type":"VEC3","min":[0,0.042998004704713821,0],"max":[0.039998002350330353,0.082998007535934448,0.039998002350330353]},{"bufferView":1,"byteOffset":0,"count":8,"componentType":5121,"type":"VEC4","normalized":true},{"bufferView":2,"byteOffset":0,"count":36,"componentType":5125,"type":"SCALAR"},{"bufferView":3,"byteOffset":0,"count":4,"componentType":5126,"type":"VEC3","min":[0.042998004704713821,0.042998004704713821,0],"max":[0.082998007535934448,0.082998007535934448,0]},{"bufferView":3,"byteOffset":48,"count":5,"componentType":5126,"type":"VEC3","min":[0.042998004704713821,0.042998004704713821,0],"max":[0.082998007535934448,0.082998007535934448,0.039998002350330353]},{"bufferView":4,"byteOffset":0,"count":5,"componentType":5121,"type":"VEC4","normalized":true},{"bufferView":5,"byteOffset":0,"count":6,"componentType":5125,"type":"SCALAR"},{"bufferView":5,"byteOffset":24,"count":12,"componentType":5125,"type":"SCALAR"},{"bufferView":6,"byteOffset":0,"count":8,"componentType":5126,"type":"VEC3","min":[0,0.042998004704713821,0],"max":[0.039998002350330353,0.082998007535934448,0.039998002350330353]},{"bufferView":7,"byteOffset":0,"count":8,"componentType":5121,"type":"VEC4","normalized":true},{"bufferView":8,"byteOffset":0,"count":36,"componentType":5125,"type":"SCALAR"},{"bufferView":9,"byteOffset":0,"count":406,"componentType":5126,"type":"VEC3","min":[-0.057181980460882187,0.03481258824467659,2.0186416804790497E-7],"max":[-0.038741514086723328,0.054274622350931168,0.0042264033108949661]},{"bufferView":10,"byteOffset":0,"count":406,"componentType":5121,"type":"VEC4","normalized":true},{"bufferView":11,"byteOffset":0,"count":2436,"componentType":5125,"type":"SCALAR"},{"bufferView":12,"byteOffset":0,"count":1214,"componentType":5126,"type":"VEC3","min":[-0.057163450866937637,0.01192103698849678,3.9453152567148209E-7],"max":[-0.04001462459564209,0.031939122825860977,0.0042424756102263927]},{"bufferView":13,"byteOffset":0,"count":1214,"componentType":5121,"type":"VEC4","normalized":true},{"bufferView":14,"byteOffset":0,"count":7278,"componentType":5125,"type":"SCALAR"},{"bufferView":15,"byteOffset":0,"count":512,"componentType":5126,"type":"VEC3","min":[-0.059000290930271149,-0.0080184489488601685,5.4115662351250648E-7],"max":[-0.038980603218078613,0.011445198208093643,0.0042251776903867722]},{"bufferView":16,"byteOffset":0,"count":512,"componentType":5121,"type":"VEC4","normalized":true},{"bufferView":17,"byteOffset":0,"count":3060,"componentType":5125,"type":"SCALAR"},{"bufferView":18,"byteOffset":0,"count":3,"componentType":5126,"type":"VEC3","min":[-0.033049747347831726,-0.00579250231385231,0.0042266608215868473],"max":[-0.033046573400497437,0.0092242322862148285,0.0042267879471182823]},{"bufferView":18,"byteOffset":36,"count":406,"componentType":5126,"type":"VEC3","min":[-0.035273980349302292,-0.0080167651176452637,6.023910827934742E-7],"max":[-0.018226820975542068,0.011445280164480209,0.0042268205434083939]},{"bufferView":19,"byteOffset":0,"count":406,"componentType":5121,"type":"VEC4","normalized":true},{"bufferView":20,"byteOffset":0,"count":3,"componentType":5125,"type":"SCALAR"},{"bufferView":20,"byteOffset":12,"count":2421,"componentType":5125,"type":"SCALAR"},{"bufferView":21,"byteOffset":0,"count":972,"componentType":5126,"type":"VEC3","min":[-0.016510829329490662,-0.0082748495042324066,6.6868960857391357E-7],"max":[0.0031561404466629028,0.011701911687850952,0.004226860124617815]},{"bufferView":22,"byteOffset":0,"count":972,"componentType":5121,"type":"VEC4","normalized":true},{"bufferView":23,"byteOffset":0,"count":5832,"componentType":5125,"type":"SCALAR"},{"bufferView":24,"byteOffset":0,"count":972,"componentType":5126,"type":"VEC3","min":[-0.016510829329490662,-0.0082748495042324066,6.6868960857391357E-7],"max":[0.0031561404466629028,0.011701911687850952,0.004226860124617815]},{"bufferView":25,"byteOffset":0,"count":972,"componentType":5121,"type":"VEC4","normalized":true},{"bufferView":26,"byteOffset":0,"count":5832,"componentType":5125,"type":"SCALAR"}],"materials":[{"name":"Yellow","pbrMetallicRoughness":{"baseColorFactor":[0.99110221862792969,0.87962257862091064,0,1],"metallicFactor":0,"roughnessFactor":1},"alphaMode":"OPAQUE"},{"name":"Green_1_2","pbrMetallicRoughness":{"baseColorFactor":[0.015208514407277107,0.49693304300308228,0.072271861135959625,1],"metallicFactor":0,"roughnessFactor":0.498039186000824},"alphaMode":"OPAQUE"}],"bufferViews":[{"buffer":0,"byteOffset":0,"byteLength":96,"byteStride":12,"target":34962},{"buffer":0,"byteOffset":96,"byteLength":32,"byteStride":4,"target":34962},{"buffer":0,"byteOffset":128,"byteLength":144,"target":34963},{"buffer":0,"byteOffset":272,"byteLength":108,"byteStride":12,"target":34962},{"buffer":0,"byteOffset":380,"byteLength":20,"byteStride":4,"target":34962},{"buffer":0,"byteOffset":400,"byteLength":72,"target":34963},{"buffer":0,"byteOffset":472,"byteLength":96,"byteStride":12,"target":34962},{"buffer":0,"byteOffset":568,"byteLength":32,"byteStride":4,"target":34962},{"buffer":0,"byteOffset":600,"byteLength":144,"target":34963},{"buffer":0,"byteOffset":744,"byteLength":4872,"byteStride":12,"target":34962},{"buffer":0,"byteOffset":5616,"byteLength":1624,"byteStride":4,"target":34962},{"buffer":0,"byteOffset":7240,"byteLength":9744,"target":34963},{"buffer":0,"byteOffset":16984,"byteLength":14568,"byteStride":12,"target":34962},{"buffer":0,"byteOffset":31552,"byteLength":4856,"byteStride":4,"target":34962},{"buffer":0,"byteOffset":36408,"byteLength":29112,"target":34963},{"buffer":0,"byteOffset":65520,"byteLength":6144,"byteStride":12,"target":34962},{"buffer":0,"byteOffset":71664,"byteLength":2048,"byteStride":4,"target":34962},{"buffer":0,"byteOffset":73712,"byteLength":12240,"target":34963},{"buffer":0,"byteOffset":85952,"byteLength":4908,"byteStride":12,"target":34962},{"buffer":0,"byteOffset":90860,"byteLength":1624,"byteStride":4,"target":34962},{"buffer":0,"byteOffset":92484,"byteLength":9696,"target":34963},{"buffer":0,"byteOffset":102180,"byteLength":11664,"byteStride":12,"target":34962},{"buffer":0,"byteOffset":113844,"byteLength":3888,"byteStride":4,"target":34962},{"buffer":0,"byteOffset":117732,"byteLength":23328,"target":34963},{"buffer":0,"byteOffset":141060,"byteLength":11664,"byteStride":12,"target":34962},{"buffer":0,"byteOffset":152724,"byteLength":3888,"byteStride":4,"target":34962},{"buffer":0,"byteOffset":156612,"byteLength":23328,"target":34963}],"buffers":[{"byteLength":179940,"uri":"station.bin"}]}